<?xml version="1.0" encoding="UTF-8"?>
<svg id="Layer_2" data-name="Layer 2" xmlns="http://www.w3.org/2000/svg" viewBox="0 0 18.02 15.12">
  <g id="Layer_2-2" data-name="Layer 2">
    <g id="Layer_1-2" data-name="Layer 1-2">
      <path d="M.54.42C.21.47-.04.78,0,1.12c.01.12.07.23.15.32l4.47,5.19,6.46-2.83c.31-.14.68,0,.82.32s0,.68-.32.82l-6.46,2.83.78,6.81c.03.34.35.58.69.54.12-.01.23-.06.33-.14,4.38-3.66,8.11-8.04,11.01-12.95.18-.3.08-.67-.22-.85-.06-.03-.12-.06-.19-.07C11.95-.08,6.21-.32.54.42Z"/>
    </g>
  </g>
</svg>